<?xml version="1.0" encoding="UTF-8"?>
<svg width="57px" height="19px" viewBox="0 0 57 19" version="1.1" xmlns="http://www.w3.org/2000/svg" xmlns:xlink="http://www.w3.org/1999/xlink">
    <!-- Generator: Sketch 46.2 (44496) - http://www.bohemiancoding.com/sketch -->
    <title>Fill 1</title>
    <desc>Created with Sketch.</desc>
    <defs></defs>
    <g id="Page-1" stroke="none" stroke-width="1" fill="none" fill-rule="evenodd">
        <g id="Homepage-Desktop" transform="translate(-384.000000, -693.000000)" fill="#CCBB81">
            <g id="Page-1-Copy-4" transform="translate(384.390625, 693.201511)">
                <path d="M34.869503,15.2049399 C33.2635331,15.2992168 31.6339145,15.193934 30.0570738,15.5921189 C28.7767028,15.9150276 27.5859526,16.554719 26.3091339,16.8211447 C26.2159606,16.8405607 26.1251218,16.7220917 26.206623,16.6461925 C28.4047202,14.5989929 32.1472809,15.1063022 34.8678791,15.144719 C34.9064476,15.1452382 34.9070565,15.2027595 34.869503,15.2049399 M31.2663978,9.88255319 C29.3893322,7.65531381 27.3780889,4.1302099 28.2052807,1.06569215 C28.2207081,1.00868994 28.3041377,1.00360231 28.3196666,1.06382322 C28.7201695,2.5964455 28.7427016,4.17454495 29.280427,5.69003542 C29.8061759,7.17406564 30.4352476,8.54679101 31.3030378,9.85306571 C31.3181607,9.87538898 31.2837536,9.9032152 31.2663978,9.88255319 M23.5447909,9.31014302 C21.4959942,9.59712682 19.47247,9.53804803 17.4966488,10.2754427 C17.1098478,10.4197653 16.9412631,9.7935716 17.3242072,9.64789928 C19.2902848,8.90001782 21.499851,8.96480722 23.5499672,9.26248543 C23.578792,9.26684626 23.5692514,9.30661283 23.5447909,9.31014302 M50.6285721,13.8353294 C48.7343537,14.0775629 46.9773577,13.6939141 45.5204853,12.3946998 C45.239849,12.1442639 45.6446148,11.7155532 45.9218001,11.9695194 C47.2523102,13.1867087 48.8711702,13.7073081 50.6285721,13.8113449 C50.6435935,13.8121755 50.6435935,13.8333567 50.6285721,13.8353294 M56.0612429,12.1305584 C54.5498671,12.364174 53.1114669,12.775649 51.565481,12.6839678 C50.0117814,12.5914561 49.0026074,11.7970591 47.5863333,11.3325275 C46.8529237,11.0920591 44.431637,10.8818051 44.6742123,12.3800599 C44.9222683,13.9099826 46.7276778,14.4757477 48.0100788,14.5895445 C49.9543347,14.7622124 52.2288583,14.3544752 54.1643856,13.5179237 C49.1275489,16.4220254 40.9551986,16.7676727 36.9057143,12.7742992 C34.0838231,9.99105467 34.423327,4.704489 37.9511223,2.77067084 C40.0205227,1.63644106 42.6237916,1.9765854 44.3799756,3.50941533 C45.253145,4.27069076 45.5655495,5.26371287 45.6002611,6.39648904 C45.6167034,6.9229029 45.2202603,7.61191322 44.7555105,8.07758702 C44.8078824,7.87802737 44.817829,7.65354872 44.7689079,7.40664297 C44.2284422,4.65672758 40.2420883,6.40313411 41.4877477,9.0982277 C42.6926058,11.7057933 47.3048851,9.27671003 47.0107499,6.85967094 C46.6015183,3.49228352 44.1185221,1.25434974 40.8377678,1.07669804 C37.4430337,0.892608933 34.4926487,3.55385421 33.8698697,6.85520628 C33.4860121,8.8889081 33.9983635,10.8650886 35.0776712,12.4862771 C32.7099743,10.9637263 31.7732684,7.31589628 31.1141539,4.73958326 C30.6975131,3.11008837 29.3533011,-2.06942943 27.0543169,0.903095678 C25.3409643,3.1183947 27.5976246,7.08695298 28.8454155,8.91891473 C29.4817949,9.85244274 30.2247451,10.6847373 31.0592446,11.3747859 C29.9857222,10.9094236 28.9273227,10.4215304 27.9052588,9.89034038 C24.5957812,8.17124093 21.6638684,5.85086679 18.3619016,4.1376856 C13.5065396,1.61795947 6.45074596,-0.397260761 1.98167746,3.92981961 C-1.05284766,6.86766578 -0.735063927,13.9532794 3.85823559,15.0839789 C5.28831315,15.435856 8.12745862,14.7983449 8.49588882,13.0475776 C8.72526961,11.9579943 8.48949458,10.805283 7.64119165,10.3922506 C7.06012749,9.88525275 6.17924437,9.69119605 5.50642789,10.1762859 C4.36551221,10.9988205 4.65711,13.0220356 5.95869372,13.4860481 C6.33158975,13.6192609 6.7684282,13.5046335 7.10630813,13.2595967 C7.33193357,13.1554561 7.53685384,13.0003353 7.71183281,12.816973 C7.43525642,13.3094347 7.02226951,13.7333692 6.57487548,13.9138243 C5.65095808,14.2861557 4.41849309,14.2058957 3.51842724,13.8116564 C1.48353547,12.9198677 1.1440316,10.1013212 1.4378623,8.16303842 C2.2196854,3.00792047 7.95055122,2.54100073 11.9293944,3.33799338 C16.3730889,4.22760165 20.4097848,6.96858773 24.4426238,8.95567025 C24.5000705,8.98391179 24.5588367,9.01090737 24.6163849,9.03904507 C22.6248318,8.30725713 20.5445714,7.58668274 18.4486806,8.07436832 C17.6556929,8.25897657 15.8754544,8.84779175 16.1395468,10.05221 C16.4163262,11.3156033 17.976623,11.1386784 18.923174,10.9915525 C21.6888364,10.5624266 24.0291294,9.68257823 26.7254701,10.0338323 C28.844502,11.0010009 31.0143834,11.8933088 33.1960383,12.7113787 C33.5037739,12.8478103 33.8207457,12.9635798 34.1448222,13.0618022 C34.8006888,13.3012322 35.4563525,13.5342249 36.1119146,13.7608839 C36.4978022,14.1533582 36.9204312,14.5118803 37.3747269,14.8279362 C35.692432,14.4332816 34.0022204,14.0516056 32.2535471,13.8776917 C29.5572064,13.6099163 26.5488672,13.832526 25.1219361,16.5511889 C24.9029078,16.9691012 24.9164068,17.6601881 25.3689771,17.9266138 C26.3490218,18.5040078 27.1198833,18.0003325 28.047556,17.5434842 C30.1231477,16.5210784 32.6270521,16.444141 34.8886858,16.3055291 C36.2442653,16.2223619 37.6126334,16.1504083 38.9810014,16.1338994 C39.6208317,16.237521 40.2613725,16.323803 40.9031312,16.3856852 C46.0078687,17.6506359 52.410333,15.8163899 56.0136413,12.5074583 C56.0303881,12.4959332 56.0480484,12.4854465 56.0647953,12.4738176 C56.0673327,12.4720525 56.0673327,12.4689376 56.0699716,12.4668611 C56.1052921,12.4476527 56.1440636,12.4308323 56.1787752,12.411001 C56.3393417,12.3195275 56.2186631,12.1061586 56.0612429,12.1305584" id="Fill-1"></path>
            </g>
        </g>
    </g>
</svg>