<svg id="Layer_1" data-name="Layer 1" xmlns="http://www.w3.org/2000/svg" viewBox="0 0 599.5 159.22"><defs><style>.cls-1{fill:#16222a;fill-rule:evenodd;}</style></defs><title>logo-main</title><path class="cls-1" d="M484.09.56h57C575.7.56,599.5,18.3,599.5,48.63v.45c0,33-28.52,50.09-61.3,50.09H495.76v59.71H484.09Zm54.79,87.82c29.19,0,49-15.27,49-38.63V49.3c0-24.93-19.31-38-47.61-38H495.76v77Z"/><path class="cls-1" d="M86.46,6c-.07-.17-.15-.33-.23-.5l-.08-.17h0a8.74,8.74,0,0,0-15.69.26h-.09L-.5,158.88H11.63L77.07,15.57a1.12,1.12,0,0,1,2,0l40.3,88.73,24.92,54.58h12.8Z"/><path class="cls-1" d="M381.24.56a6.7,6.7,0,0,0-5.44,2.81L314.51,93.7a.77.77,0,0,1-1.27,0L252,3.37A6.71,6.71,0,0,0,246.51.56a6.54,6.54,0,0,0-6.73,6.5V158.88H251V22.31l56.66,82.48a7.26,7.26,0,0,0,12,0L376.3,22.31V158.88H388V7.06a6.54,6.54,0,0,0-6.73-6.5"/></svg>