<?xml version="1.0" encoding="UTF-8"?>
<svg width="230px" height="321px" viewBox="0 0 230 321" version="1.1" xmlns="http://www.w3.org/2000/svg" xmlns:xlink="http://www.w3.org/1999/xlink">
    <!-- Generator: Sketch 46.2 (44496) - http://www.bohemiancoding.com/sketch -->
    <title>Page 1 Copy 3</title>
    <desc>Created with Sketch.</desc>
    <defs>
        <polygon id="path-1" points="230.03646 248.050524 0.000791554626 248.050524 0.000791554626 0.709446925 230.03646 0.709446925"></polygon>
    </defs>
    <g id="Page-1" stroke="none" stroke-width="1" fill="none" fill-rule="evenodd">
        <g id="Homepage-Desktop" transform="translate(-605.000000, -1227.000000)">
            <g id="Page-1-Copy-3" transform="translate(605.000000, 1227.000000)">
                <g id="Group-15" transform="translate(0.000000, 72.000000)">
                    <mask id="mask-2" fill="white">
                        <use xlink:href="#path-1"></use>
                    </mask>
                    <g id="Clip-14"></g>
                    <path d="M208.250898,158.498773 C205.347871,199.366081 114.910777,237.449711 114.910777,237.449711 C114.910777,237.449711 24.6854226,199.366081 21.7962482,158.498773 C21.7962482,158.498773 20.7058817,62.200047 9.90313992,40.8125796 C9.90313992,40.8125796 18.6102408,42.8343882 28.5798713,40.6137454 C42.855559,37.4304304 86.9708772,9.73342382 114.918692,11.4402477 C142.868486,9.73342382 187.169819,37.4304304 201.45738,40.6137454 C211.419095,42.8343882 220.132133,40.8125796 220.132133,40.8125796 C209.33137,62.200047 208.250898,158.498773 208.250898,158.498773 M209.602478,32.7155017 C193.971253,29.2388571 145.476658,-1.07055456 114.90484,0.791793022 C84.3251058,-1.07055456 36.0580836,29.2388571 20.4268587,32.7155017 C9.52715147,35.1428533 0.000791554626,32.9399284 0.000791554626,32.9399284 C11.8068288,56.3373925 12.9981185,161.70768 12.9981185,161.70768 C16.1663159,206.431583 114.944418,248.078479 115.015658,248.050918 C115.080961,248.078479 213.86302,206.431583 217.02726,161.70768 C217.02726,161.70768 218.214592,56.3373925 230.03646,32.9399284 C230.03646,32.9399284 220.502185,35.1428533 209.602478,32.7155017" id="Fill-13" fill="#CCBB81" mask="url(#mask-2)"></path>
                </g>
                <path d="M17.2731672,118.812213 C26.8500647,141.680624 27.9020121,225.297988 27.9437718,228.931986 C30.6024744,266.48592 108.460503,300.008418 115.398584,302.920338 C121.557149,300.26026 200.465137,265.435267 203.044297,228.874928 C203.084068,225.296021 204.155901,141.680624 213.726833,118.812213 C210.783766,119.06012 204.430322,119.302124 197.359008,117.728113 L197.359008,117.726145 C192.825095,116.714843 185.529074,113.318915 176.290232,109.01793 C158.057139,100.530076 133.084822,88.9079726 115.462217,89.9842025 L115.404549,89.9881376 L115.342904,89.9842025 C97.7123447,88.906005 72.8374672,100.526141 54.6699973,109.01006 C45.4490518,113.313012 38.1689393,116.712876 33.6350261,117.726145 C26.5637122,119.302124 20.2182222,119.06012 17.2731672,118.812213 L17.2731672,118.812213 Z M115.406538,305 L115.0307,304.844566 C111.510952,303.386639 28.8207261,268.699373 26.010893,229.008719 C25.9989616,228.046605 24.871449,138.019082 14.8272403,118.105876 L14,116.461034 L15.8354394,116.730583 C15.9169703,116.744356 24.0521629,117.899287 33.2094746,115.860942 C37.5345892,114.892926 45.0930998,111.363206 53.8447455,107.278648 C72.1812429,98.7160282 97.2808276,86.9876792 115.404549,88.0698117 C133.522305,86.9955493 158.711375,98.7219308 177.113495,107.286518 C185.885026,111.367141 193.457457,114.892926 197.78456,115.860942 C206.95778,117.903222 215.08303,116.744356 215.164561,116.730583 L217,116.461034 L216.17276,118.105876 C206.136505,138.021049 204.987118,228.046605 204.977176,228.951661 C203.813869,245.451231 188.414472,263.22575 159.202549,281.836461 C137.572999,295.616927 115.99714,304.752093 115.782375,304.842599 L115.406538,305 Z" id="Fill-16" fill="#CCBB81"></path>
                <path d="M171,21.4711334 C150.030508,42.4557636 142.714607,23.9134969 142.714607,23.9134969 C125.573316,32.0382951 116.36595,4.689732 115.080697,0.539683565 L115.080697,0 C115.080697,0 115.047237,0.108330643 115,0.275750727 C114.948826,0.108330643 114.919303,0 114.919303,0 L114.919303,0.539683565 C113.632082,4.689732 104.426684,32.0382951 87.2853929,23.9134969 C87.2853929,23.9134969 79.9694925,42.4557636 59,21.4711334 C59,21.4711334 82.408126,46.8480788 80.4576128,61 L114.919303,61 L115.080697,61 L149.542387,61 C147.591874,46.8480788 171,21.4711334 171,21.4711334" id="Fill-18" fill="#CCBB81"></path>
                <polygon id="Fill-20" fill="#CCBB81" points="80 68 152 68 152 65 80 65"></polygon>
                <path d="M90,23.9979047 C90,26.2084861 88.2094241,28 86,28 C83.7905759,28 82,26.2084861 82,23.9979047 C82,21.7915139 83.7905759,20 86,20 C88.2094241,20 90,21.7915139 90,23.9979047" id="Fill-22" fill="#CCBB81"></path>
                <path d="M147.999405,24.0691351 C147.957526,26.2772558 146.137887,28.0391434 143.928774,27.9993386 C141.721755,27.9595338 139.964934,26.1389864 140.000532,23.9308657 C140.040317,21.7206499 141.86205,19.9608573 144.071163,20.0006622 C146.278182,20.036277 148.037096,21.8610144 147.999405,24.0691351" id="Fill-23" fill="#CCBB81"></path>
                <path d="M80.4210951,216 L56.6840526,164.673216 L56.6840526,205.426904 C56.6840526,209.178712 57.0923162,211.516422 57.9068519,212.445968 C59.0241,213.7058 60.7905869,214.334727 63.2063124,214.334727 L65.3810628,214.334727 L65.3810628,216 L44,216 L44,214.334727 L46.1747504,214.334727 C48.7717052,214.334727 50.6138701,213.557468 51.7012453,211.997017 C52.3664163,211.067471 52.6990017,208.876115 52.6990017,205.426904 L52.6990017,165.573096 C52.6990017,162.932789 52.3962892,160.984697 51.7928557,159.722887 C51.5817536,159.273936 51.2949733,158.862562 50.9305233,158.486788 C50.5700565,158.112992 50.0781486,157.788639 49.4587829,157.519664 C48.8414087,157.248711 48.0925935,157.041047 47.218312,156.890737 C46.3420389,156.740427 45.2705959,156.665273 44,156.665273 L44,155 L61.3960119,155 L83.6812292,202.729242 L105.60598,155 L123,155 L123,156.665273 L120.871055,156.665273 C118.244227,156.665273 116.388121,157.446487 115.300746,159.004961 C114.635575,159.934507 114.30299,162.123885 114.30299,165.573096 L114.30299,205.426904 C114.30299,209.178712 114.725194,211.516422 115.571594,212.445968 C116.688842,213.7058 118.455329,214.334727 120.871055,214.334727 L123,214.334727 L123,216 L96.9089694,216 L96.9089694,214.334727 L99.0837199,214.334727 C101.680675,214.334727 103.52284,213.557468 104.610215,211.997017 C105.273394,211.067471 105.60598,208.876115 105.60598,205.426904 L105.60598,164.673216 L81.9147424,216 L80.4210951,216 Z" id="Fill-24" fill="#CCBB81"></path>
                <path d="M143.491621,211.591434 C146.948322,212.402341 150.389167,212.805817 153.816138,212.805817 C156.549389,212.805817 158.96353,212.477498 161.050632,211.816906 C163.139717,211.158291 164.88987,210.25047 166.303074,209.095422 C167.716278,207.940374 168.774695,206.591499 169.482288,205.044841 C170.187899,203.50214 170.540704,201.844725 170.540704,200.076551 C170.540704,198.126419 170.158168,196.304844 169.391113,194.60985 C168.626041,192.916834 167.452665,191.445334 165.87495,190.201284 C164.297236,188.957234 162.315183,187.974256 159.924826,187.254329 C157.53447,186.534401 154.717972,186.174437 151.471368,186.174437 C149.578507,186.174437 147.977008,186.206083 146.670835,186.265417 C145.36268,186.32673 144.304263,186.429577 143.491621,186.579891 L143.491621,211.591434 Z M143.491621,182.442286 C145.774947,182.861585 148.615229,183.071234 152.012469,183.071234 C156.430466,183.071234 159.720675,182.606446 161.885077,181.676869 C162.997009,181.198236 163.982089,180.581156 164.838337,179.831561 C165.694584,179.081966 166.408123,178.243369 166.980936,177.313793 C167.549786,176.382239 167.985837,175.377505 168.287109,174.299591 C168.588382,173.2197 168.739018,172.094319 168.739018,170.923449 C168.739018,169.18692 168.370356,167.529505 167.633032,165.955159 C166.89769,164.378834 165.807561,163.008203 164.364626,161.837332 C162.921691,160.668439 161.133879,159.738863 159.001189,159.048603 C156.866518,158.358343 154.400843,158.014201 151.606148,158.014201 C148.541893,158.014201 145.836391,158.344498 143.491621,159.003113 L143.491621,182.442286 Z M167.113734,184.869075 C169.609139,185.410998 171.735882,186.146748 173.493964,187.074347 C175.252045,188.003923 176.687052,189.099637 177.800966,190.35951 C178.910916,191.617405 179.723558,193.007814 180.234927,194.51887 C180.744315,196.03586 181,197.629985 181,199.311134 C181,200.810324 180.752243,202.30358 180.25673,203.786946 C179.761217,205.272291 179.045695,206.666656 178.116112,207.970041 C177.184547,209.275404 176.048831,210.460119 174.710945,211.524188 C173.373058,212.590234 171.862734,213.450587 170.17997,214.11118 C166.844175,215.371052 161.734441,216 154.852751,216 L126,216 L126,214.336651 L128.299182,214.336651 C130.824318,214.336651 132.657717,213.527722 133.79938,211.905908 C134.489135,210.857662 134.835994,208.622722 134.835994,205.205045 L134.835994,165.796933 C134.835994,162.046981 134.399942,159.663705 133.529821,158.643149 C132.356445,157.323941 130.612238,156.665327 128.299182,156.665327 L126,156.665327 L126,155 L152.41879,155 C157.346175,155 161.300371,155.359964 164.275433,156.079891 C166.529028,156.619837 168.51901,157.383276 170.249342,158.374165 C171.975711,159.363076 173.426574,160.518125 174.597967,161.837332 C175.771343,163.158518 176.657321,164.620128 177.257883,166.224142 C177.860427,167.828156 178.159717,169.515239 178.159717,171.28539 C178.159717,174.343104 177.228152,177.08041 175.365022,179.493353 C173.501892,181.908274 170.750802,183.700182 167.113734,184.869075 L167.113734,184.869075 Z" id="Fill-25" fill="#CCBB81"></path>
            </g>
        </g>
    </g>
</svg>