<?xml version="1.0" encoding="UTF-8"?>
<svg width="254px" height="59px" viewBox="0 0 254 59" version="1.1" xmlns="http://www.w3.org/2000/svg" xmlns:xlink="http://www.w3.org/1999/xlink">
    <!-- Generator: Sketch 46.2 (44496) - http://www.bohemiancoding.com/sketch -->
    <title>Main Logo</title>
    <desc>Created with Sketch.</desc>
    <defs></defs>
    <g id="Page-1" stroke="none" stroke-width="1" fill="none" fill-rule="evenodd">
        <g id="Contact-Desktop" transform="translate(-250.000000, -13.000000)" fill="#CCBB81">
            <g id="Main-Logo" transform="translate(250.000000, 13.542523)">
                <path d="M78.5297026,49.7377307 L65.2711627,49.7377307 L65.2711627,19.5557528 C66.5693123,19.5176143 68.0203758,19.4409774 69.6239935,19.3265618 C71.1128358,19.2506445 71.8000491,19.2121461 71.6856335,19.2121461 L71.6856335,19.7273762 C70.2155007,20.1094812 69.1749662,20.8636169 68.5643897,21.9897833 C67.9530937,23.154448 67.6479853,24.881836 67.6479853,27.1726671 L67.6479853,39.6292183 C67.6479853,41.5005254 67.7433317,43.1707057 67.9343842,44.6408385 C68.1063674,46.1872484 68.3067747,47.074869 68.5359657,47.3037002 C68.7457277,47.5328912 69.2990963,47.6473069 70.1967912,47.6473069 L76.2100878,47.6473069 C78.3292954,47.6473069 80.0854673,47.3137745 81.479323,46.6449109 C82.8724592,45.9771266 84.0943317,44.6599078 85.1445807,42.6936141 L85.7173784,42.6936141 C85.5835338,43.6096587 85.1539355,45.0607222 84.4285836,47.0460852 C83.9511322,48.3060962 83.6456641,49.3182067 83.512539,50.0813373 C81.9661291,49.8521463 80.3053036,49.7377307 78.5297026,49.7377307 Z M57.1674423,19.2121461 L63.2095227,19.5557528 L63.2095227,49.7377307 L61.4342815,49.7377307 C60.3458939,49.7377307 58.9236142,49.8521463 57.1674423,50.0813373 L57.1674423,49.5657474 C58.5800075,49.0123788 59.5439052,48.125118 60.0598549,46.9028857 C60.575085,45.6623037 60.8327,43.676581 60.8327,40.9464372 L60.8327,27.2586587 C60.8327,24.3378221 60.450595,22.409667 59.6874644,21.4741934 C58.9045449,20.5200103 58.0644176,19.9378578 57.1674423,19.7273762 L57.1674423,19.2121461 Z" id="Fill-1"></path>
                <path d="M97.4007967,49.7377307 L97.4007967,19.5557528 C99.767545,19.5557528 101.868043,19.4409774 103.700492,19.2121461 L103.700492,19.7273762 C102.573966,19.9378578 101.638852,20.5484343 100.894431,21.560185 C100.130581,22.6104341 99.7488355,24.777135 99.7488355,28.0602877 L99.7488355,41.7200019 C99.7488355,44.6599078 100.15001,46.6359159 100.951639,47.6473069 C101.753268,48.6594174 102.670032,49.2987777 103.700492,49.5657474 L103.700492,50.0813373 C101.905822,49.8521463 99.8060433,49.7377307 97.4007967,49.7377307 M95.2528053,19.5557528 L95.2528053,49.7377307 C93.8787384,49.7377307 91.7879548,49.8521463 88.9818936,50.0813373 L88.9818936,49.5657474 C90.4516667,49.184362 91.4731319,48.3539493 92.0459296,47.074869 C92.6183675,45.8148579 92.9051262,43.5337414 92.9051262,40.2307998 L92.9051262,27.4306419 C92.9051262,24.9491182 92.608653,23.1256642 92.0175056,21.9609995 C91.4252788,20.8157638 90.4135281,20.0709829 88.9818936,19.7273762 L88.9818936,19.2121461 C91.3108632,19.4028388 93.4009272,19.5176143 95.2528053,19.5557528" id="Fill-3"></path>
                <path d="M121.397603,27.6023013 L128.528071,41.0900324 L135.200157,27.0867114 C136.13527,25.1394871 136.603367,23.6794286 136.603367,22.7058164 C136.603367,21.1979048 135.858586,20.2048636 134.369744,19.7274122 L134.369744,19.2121821 C134.331245,19.2121821 134.865905,19.2600352 135.973362,19.3553815 C137.443135,19.4888664 138.598085,19.5557888 139.438572,19.5557888 C140.106356,19.5557888 141.528636,19.4410134 143.705051,19.2121821 L143.705051,19.7274122 C142.44504,20.2620714 141.423575,20.9780685 140.641015,21.8754036 C139.839386,22.7914482 138.798132,24.6055475 137.519771,27.3159025 L128.528071,46.0437251 L114.725517,19.5557888 C116.462619,19.5557888 118.534334,19.4410134 120.93958,19.2121821 L120.93958,19.7274122 C119.831764,20.0332401 119.278395,20.7204535 119.278395,21.789412 C119.278395,22.9540767 119.984678,24.8919464 121.397603,27.6023013 L121.397603,27.6023013 Z M112.406262,19.5557888 L127.468467,48.3057724 L126.466071,50.3677722 L126.008049,50.3677722 L113.179107,25.9986836 C111.270021,22.3330661 109.217736,20.2430021 107.022251,19.7274122 L107.022251,19.2121821 L112.406262,19.5557888 Z" id="Fill-5"></path>
                <path d="M155.445569,49.7377307 L155.445569,19.5557528 C157.812318,19.5557528 159.912816,19.4409774 161.745625,19.2121461 L161.745625,19.7273762 C160.618739,19.9378578 159.683625,20.5484343 158.939204,21.560185 C158.175353,22.6104341 157.793608,24.777135 157.793608,28.0602877 L157.793608,41.7200019 C157.793608,44.6599078 158.194782,46.6359159 158.996411,47.6473069 C159.7984,48.6594174 160.714805,49.2987777 161.745625,49.5657474 L161.745625,50.0813373 C159.950595,49.8521463 157.851176,49.7377307 155.445569,49.7377307 M153.297578,19.5557528 L153.297578,49.7377307 C151.923511,49.7377307 149.832727,49.8521463 147.026666,50.0813373 L147.026666,49.5657474 C148.496439,49.184362 149.517905,48.3539493 150.090702,47.074869 C150.6635,45.8148579 150.949899,43.5337414 150.949899,40.2307998 L150.949899,27.4306419 C150.949899,24.9491182 150.653785,23.1256642 150.061918,21.9609995 C149.470052,20.8157638 148.458301,20.0709829 147.026666,19.7273762 L147.026666,19.2121461 C149.355636,19.4028388 151.44606,19.5176143 153.297578,19.5557528" id="Fill-7"></path>
                <path d="M203.840104,44.9272014 L174.087724,19.5557168 L177.466583,19.5557168 L201.549633,40.0591404 L201.549633,28.1750271 C201.549633,26.1896642 201.415788,24.6626833 201.148818,23.593365 C200.880769,22.5816143 200.336755,21.7321322 199.516057,21.0449189 C198.694999,20.3767748 197.645109,19.9378218 196.366389,19.7273403 L196.366389,19.2121102 C196.385098,19.2121102 196.71935,19.2405342 197.368425,19.2981018 C199.869378,19.4697252 201.568342,19.5557168 202.465677,19.5557168 C203.286375,19.5557168 205.243314,19.4413012 208.336134,19.2121102 L208.336134,19.7273403 C207.343093,19.8611849 206.474541,20.271714 205.73012,20.9589273 C205.004409,21.6080021 204.508248,22.4099908 204.241278,23.364174 C203.973589,24.3377862 203.840104,25.7028581 203.840104,27.45903 L203.840104,44.9272014 Z M170.851345,19.5557168 L203.840104,47.7332625 L203.840104,50.0813014 L203.267666,50.0813014 L177.323384,28.0030439 L177.323384,41.3191515 C177.323384,44.2209188 177.695774,46.2350655 178.440195,47.3612318 C179.184976,48.487758 180.358636,49.2224646 181.962254,49.5660713 L181.962254,50.0813014 C179.079555,49.8521103 177.122976,49.7376947 176.092156,49.7376947 C174.927492,49.7376947 173.17132,49.8521103 170.822921,50.0813014 L170.822921,49.5660713 C172.464677,49.1843261 173.581489,48.4114809 174.173356,47.2464564 C174.764863,46.0825113 175.061336,44.0205115 175.061336,41.0611766 L175.032912,26.1130273 L172.970913,24.3662102 C170.106924,21.922825 167.691963,20.3767748 165.725669,19.7273403 L165.725669,19.2121102 L170.851345,19.5557168 Z" id="Fill-9"></path>
                <path d="M238.46112,47.7620103 L238.46112,33.9594564 C239.377524,33.9213179 240.217292,33.8641101 240.981142,33.7874732 C242.221724,33.6730576 243.033068,33.6162096 243.415173,33.6162096 L243.415173,34.1310799 C241.67771,34.8377223 240.809159,36.7083098 240.809159,39.7439218 L240.809159,47.0175892 C240.675314,47.0366585 240.303283,47.1514339 239.692347,47.3611959 C239.386879,47.4378327 239.138619,47.5144696 238.948286,47.5900271 C238.756874,47.666664 238.594605,47.7242316 238.46112,47.7620103 M236.341912,33.9594564 L236.341912,48.4492237 C233.30666,49.6901654 230.690572,50.3104564 228.495807,50.3104564 C224.792051,50.3104564 221.804292,49.0889437 219.53289,46.6451987 C218.406004,45.4042569 217.561559,43.8391376 216.998476,41.949121 C216.435033,40.0591044 216.153671,37.8636197 216.153671,35.3626669 C216.153671,24.4428111 220.725619,18.9828831 229.870234,18.9828831 C233.230023,18.9828831 236.485112,19.5463261 239.635139,20.6724925 C239.635139,22.4480934 239.663563,23.8128055 239.721131,24.7673485 C239.778339,25.5884065 239.806763,26.5908025 239.806763,27.7741766 L239.233965,27.7741766 C238.776303,25.7125366 237.69727,24.0902095 235.998306,22.9061157 C234.260843,21.7223817 232.189849,21.1305147 229.784602,21.1305147 C222.357661,21.1305147 218.64491,25.5884065 218.64491,34.5034704 C218.64491,43.5527387 221.804292,48.0768332 228.123776,48.0768332 C230.643439,48.0768332 232.428035,47.4756115 233.478284,46.2728082 C233.82189,45.6428027 233.993874,44.4784978 233.993874,42.779174 L233.993874,38.913509 C233.993874,36.1455864 232.981763,34.5513234 230.958262,34.1310799 L230.958262,33.6162096 C231.664184,33.6543481 232.647871,33.7115559 233.908242,33.7874732 C234.881854,33.8641101 235.692838,33.9213179 236.341912,33.9594564 M217.585306,22.1616945 C215.256336,25.4646361 214.092031,29.6451239 214.092031,34.7042374 C214.092031,35.8879714 214.225516,37.5772209 214.492846,39.7727056 C214.759816,41.9300517 215.580874,44.1730297 216.95566,46.5019993 C213.251904,43.6005918 211.400026,39.6485754 211.400026,34.6466698 C211.400026,31.573279 212.020317,28.9866944 213.261619,26.8861963 C214.482772,24.8249161 215.92448,23.2497224 217.585306,22.1616945" id="Fill-11"></path>
                <path d="M37.8637996,42.0917088 C37.3359766,49.5607463 20.8928685,56.52103 20.8928685,56.52103 C20.8928685,56.52103 4.48825865,49.5607463 3.96295421,42.0917088 C3.96295421,42.0917088 3.76470576,24.4918515 1.80057089,20.5830108 C1.80057089,20.5830108 3.38368015,20.9525229 5.19634024,20.5466713 C7.79191982,19.9648786 15.8128868,14.9028868 20.8943077,15.2148313 C25.9760883,14.9028868 34.0308763,19.9648786 36.6286146,20.5466713 C38.4398355,20.9525229 40.0240242,20.5830108 40.0240242,20.5830108 C38.0602491,24.4918515 37.8637996,42.0917088 37.8637996,42.0917088 M38.1095414,19.1031635 C35.2675005,18.467761 26.4503015,12.9283178 20.8917891,13.2686863 C15.3318374,12.9283178 6.55601521,18.467761 3.7139743,19.1031635 C1.73220936,19.5467938 0.000143919023,19.1441804 0.000143919023,19.1441804 C2.14669614,23.4203743 2.36329427,42.6781788 2.36329427,42.6781788 C2.93933016,50.8520597 20.898985,58.463577 20.9119377,58.4585398 C20.9238111,58.463577 38.8841855,50.8520597 39.4595018,42.6781788 C39.4595018,42.6781788 39.6753803,23.4203743 41.8248109,19.1441804 C41.8248109,19.1441804 40.0913063,19.5467938 38.1095414,19.1031635" id="Fill-13"></path>
                <path d="M3.13980936,21.6527969 C4.8725944,25.8347239 5.0629273,41.1257603 5.07048305,41.7903064 C5.55153239,48.6577623 19.6386861,54.7879931 20.8940198,55.3204935 C22.0083128,54.8340472 36.2854397,48.4656304 36.7520971,41.7798722 C36.7592931,41.1254005 36.953224,25.8347239 38.6849296,21.6527969 C38.1524292,21.6981314 37.002876,21.7423865 35.7234359,21.4545484 L35.7234359,21.4541886 C34.9030975,21.2692527 33.5830003,20.6482421 31.9113808,19.8617246 C28.612397,18.309558 24.0940593,16.1842338 20.9055333,16.3810431 L20.8950992,16.3817627 L20.8839455,16.3810431 C17.6939803,16.183874 13.1932727,18.3088384 9.90616222,19.8602855 C8.23778095,20.6471627 6.92056209,21.2688929 6.10022366,21.4541886 C4.82078355,21.7423865 3.67266954,21.6981314 3.13980936,21.6527969 L3.13980936,21.6527969 Z M20.895459,55.7007995 L20.8274573,55.6723755 C20.1906156,55.4057655 5.22915378,49.0625346 4.72075983,41.8043385 C4.71860104,41.6283975 4.51459583,25.1651406 2.69725837,21.5236296 L2.54758258,21.2228388 L2.87967573,21.2721311 C2.89442743,21.2746497 4.36635923,21.4858508 6.02322698,21.1131005 C6.80578667,20.9360801 8.17337719,20.2906033 9.75684623,19.5436636 C13.0745395,17.9778246 17.6159043,15.8330714 20.8950992,16.0309601 C24.1732148,15.8345106 28.7307704,17.978904 32.060337,19.5451028 C33.647404,20.2913229 35.0175131,20.9360801 35.8004326,21.1131005 C37.4601787,21.4865704 38.9303116,21.2746497 38.9450633,21.2721311 L39.2771564,21.2228388 L39.1274806,21.5236296 C37.3115823,25.1655004 37.1036194,41.6283975 37.1018204,41.7939043 C36.8913388,44.8111666 34.1050665,48.0615778 28.8196404,51.4649029 C24.9061224,53.984925 21.0023189,55.655465 20.9634607,55.6720157 L20.895459,55.7007995 Z" id="Fill-16"></path>
                <path d="M31.1494015,3.92240503 C27.3161184,7.7556882 25.9787509,4.368554 25.9787509,4.368554 C22.8452739,5.85271892 21.162141,0.856929842 20.9271932,0.0988363889 L20.9271932,0.00025185829 C20.9271932,0.00025185829 20.9210766,0.0200407239 20.9124415,0.0506235163 C20.9030867,0.0200407239 20.8976898,0.00025185829 20.8976898,0.00025185829 L20.8976898,0.0988363889 C20.6623821,0.856929842 18.979609,5.85271892 15.846132,4.368554 C15.846132,4.368554 14.5087645,7.7556882 10.6754814,3.92240503 C10.6754814,3.92240503 14.9545537,8.55803675 14.5979943,11.1431822 L20.8976898,11.1431822 L20.9271932,11.1431822 L27.2268886,11.1431822 C26.8703292,8.55803675 31.1494015,3.92240503 31.1494015,3.92240503" id="Fill-18"></path>
                <polygon id="Fill-20" points="14.3962199 12.4525935 27.4716229 12.4525935 27.4716229 11.8085558 14.3962199 11.8085558"></polygon>
                <path d="M16.3072126,4.12216463 C16.3072126,4.50175105 15.9995857,4.80937797 15.6199993,4.80937797 C15.2404129,4.80937797 14.932786,4.50175105 14.932786,4.12216463 C14.932786,3.7432978 15.2404129,3.43567089 15.6199993,3.43567089 C15.9995857,3.43567089 16.3072126,3.7432978 16.3072126,4.12216463" id="Fill-22"></path>
                <path d="M26.6559618,4.13446971 C26.6487659,4.51369633 26.3361018,4.81628608 25.9565154,4.80944993 C25.5772887,4.80261377 25.2754186,4.48994969 25.2815351,4.11072307 C25.2883713,3.73113665 25.6013952,3.4289067 25.9809816,3.43574285 C26.3602082,3.44185941 26.6624382,3.75524308 26.6559618,4.13446971" id="Fill-23"></path>
                <path d="M14.6141492,39.414635 L10.3257222,30.0771688 L10.3257222,37.4911573 C10.3257222,38.1736933 10.3994807,38.598974 10.5466379,38.7680788 C10.7484843,38.9972699 11.0676247,39.1116855 11.5040592,39.1116855 L11.8969581,39.1116855 L11.8969581,39.414635 L8.03417151,39.414635 L8.03417151,39.1116855 L8.42707044,39.1116855 C8.89624646,39.1116855 9.2290592,38.9702851 9.42550866,38.6864048 C9.54568105,38.5172999 9.60576724,38.1186442 9.60576724,37.4911573 L9.60576724,30.2408767 C9.60576724,29.760547 9.55107801,29.4061464 9.44205935,29.1765956 C9.40392081,29.0949215 9.35210996,29.0200836 9.28626701,28.9517221 C9.22114365,28.8837203 9.13227365,28.8247135 9.02037661,28.7757811 C8.90883937,28.7264888 8.77355549,28.6887101 8.61560436,28.6613655 C8.45729344,28.6340208 8.26372235,28.6203485 8.03417151,28.6203485 L8.03417151,28.317399 L11.1770032,28.317399 L15.2031378,37.0003934 L19.1641491,28.317399 L22.306621,28.317399 L22.306621,28.6203485 L21.9219974,28.6203485 C21.4474244,28.6203485 21.1120931,28.7624686 20.9156436,29.045989 C20.7954713,29.2150939 20.7353851,29.6133898 20.7353851,30.2408767 L20.7353851,37.4911573 C20.7353851,38.1736933 20.8116622,38.598974 20.9645761,38.7680788 C21.1664225,38.9972699 21.485563,39.1116855 21.9219974,39.1116855 L22.306621,39.1116855 L22.306621,39.414635 L17.5929132,39.414635 L17.5929132,39.1116855 L17.9858121,39.1116855 C18.4549882,39.1116855 18.7878009,38.9702851 18.9842504,38.6864048 C19.1040629,38.5172999 19.1641491,38.1186442 19.1641491,37.4911573 L19.1641491,30.0771688 L14.8839974,39.414635 L14.6141492,39.414635 Z" id="Fill-24"></path>
                <path d="M26.1120558,38.6124664 C26.7395428,38.7599834 27.3641513,38.8333821 27.9862413,38.8333821 C28.4824022,38.8333821 28.9206356,38.7736557 29.2995024,38.6534833 C29.678729,38.5336707 29.9964303,38.3685236 30.2529659,38.1584019 C30.5095016,37.9482801 30.7016335,37.7028982 30.8300812,37.4215365 C30.9581691,37.1408944 31.0222131,36.839384 31.0222131,36.517725 C31.0222131,36.1629646 30.9527722,35.8315911 30.8135305,35.5232446 C30.6746487,35.2152579 30.4616485,34.9475685 30.1752497,34.7212558 C29.8888508,34.4949431 29.5290532,34.3161238 29.0951374,34.1851575 C28.6612215,34.0541911 28.1499492,33.988708 27.5606008,33.988708 C27.2169941,33.988708 26.9262777,33.9944647 26.6891711,34.0052587 C26.4517047,34.0164124 26.2595728,34.0351219 26.1120558,34.0624665 L26.1120558,38.6124664 Z M26.1120558,33.30977 C26.5265426,33.3860471 27.0421325,33.4241856 27.6588255,33.4241856 C28.4608143,33.4241856 29.0580782,33.3396332 29.4509772,33.1705283 C29.6528236,33.0834573 29.831643,32.9712005 29.9870755,32.8348372 C30.1425081,32.6984739 30.2720352,32.5459198 30.3760167,32.3768149 C30.4792786,32.2073503 30.5584341,32.0245731 30.6131233,31.8284835 C30.6678125,31.632034 30.6951571,31.4273092 30.6951571,31.214309 C30.6951571,30.8984068 30.6282348,30.5968964 30.4943901,30.3104976 C30.3609052,30.0237389 30.1630165,29.7743992 29.9010839,29.561399 C29.6391513,29.3487587 29.3146139,29.1796538 28.9274717,29.0540845 C28.5399698,28.9285151 28.0923816,28.8659104 27.585067,28.8659104 C27.02882,28.8659104 26.5376964,28.9259966 26.1120558,29.0458091 L26.1120558,33.30977 Z M30.4001231,33.7512416 C30.8531083,33.8498261 31.239171,33.9836708 31.5583115,34.1524159 C31.8774519,34.3215207 32.1379453,34.5208486 32.3401516,34.7500396 C32.5416382,34.9788709 32.6891552,35.2318085 32.781983,35.5066939 C32.8744509,35.7826586 32.9208648,36.0726554 32.9208648,36.3784834 C32.9208648,36.6512099 32.8758901,36.9228571 32.7859407,37.1927052 C32.6959913,37.4629132 32.5661044,37.7165705 32.3973594,37.9536771 C32.2282545,38.1911435 32.0220905,38.4066622 31.7792272,38.6002333 C31.5363638,38.7941642 31.2621981,38.9506761 30.95673,39.0708485 C30.3511907,39.3000395 29.4236326,39.4144551 28.1744154,39.4144551 L22.9368424,39.4144551 L22.9368424,39.1118654 L23.3542076,39.1118654 C23.8125897,39.1118654 24.1454024,38.9647082 24.3526458,38.6696742 C24.4778553,38.4789815 24.5408199,38.0724103 24.5408199,37.4506801 L24.5408199,30.2817138 C24.5408199,29.5995376 24.4616645,29.1659815 24.3037133,28.980326 C24.0907132,28.740341 23.7740913,28.6205284 23.3542076,28.6205284 L22.9368424,28.6205284 L22.9368424,28.3175789 L27.732584,28.3175789 C28.6270408,28.3175789 29.3448369,28.383062 29.884893,28.5140284 C30.2939829,28.6122531 30.6552196,28.7511349 30.9693229,28.9313935 C31.2827065,29.1112923 31.5460784,29.3214141 31.7587187,29.561399 C31.9717189,29.8017438 32.1325484,30.0676342 32.241567,30.35943 C32.3509455,30.6512258 32.4052749,30.9581332 32.4052749,31.280152 C32.4052749,31.836399 32.2361701,32.3343588 31.8979604,32.7733118 C31.5597507,33.2126247 31.0603516,33.5386012 30.4001231,33.7512416 L30.4001231,33.7512416 Z" id="Fill-25"></path>
                <path d="M249.687919,23.9883148 L249.662374,24.1095666 L248.307376,23.6824869 L248.307376,19.8168219 L248.443379,19.8168219 L248.443379,20.0046362 C248.443379,20.2133188 248.511741,20.3644338 248.649543,20.4576214 C248.725461,20.5090724 248.907158,20.534618 249.194637,20.534618 L252.416264,20.534618 C252.730367,20.534618 252.925378,20.5004373 253.001655,20.4317159 C253.109594,20.3360098 253.163204,20.1938897 253.163204,20.0046362 L253.163204,19.8168219 L253.299567,19.8168219 L253.299567,22.07743 L253.163204,22.07743 C253.163204,21.9425059 253.157447,21.830249 253.144854,21.7402996 C253.132621,21.6510699 253.114271,21.5773114 253.089805,21.5197437 C253.065339,21.4621761 253.036555,21.4164818 253.003454,21.3833805 C252.969992,21.3502791 252.934013,21.3229345 252.894435,21.300627 C252.818518,21.2614091 252.630703,21.24198 252.331712,21.24198 L249.194637,21.24198 C249.108645,21.24198 249.034887,21.2448584 248.973721,21.250975 C248.912196,21.2570915 248.861104,21.2675257 248.821167,21.2822774 C248.78051,21.2970291 248.747408,21.3164581 248.721143,21.3412842 C248.695597,21.3653906 248.675449,21.3977724 248.660697,21.4369903 C248.635871,21.4959971 248.623998,21.6874094 248.623998,22.0112272 L248.623998,22.3760619 C248.623998,22.7560082 248.652062,23.0247769 248.70819,23.1820085 C248.735535,23.2604443 248.772234,23.3342028 248.819008,23.4029242 C248.865782,23.4712857 248.927667,23.5385678 249.005023,23.6036912 C249.08238,23.6684548 249.175927,23.7324987 249.286745,23.7951035 C249.396843,23.8577083 249.530688,23.922112 249.687919,23.9883148" id="Fill-26"></path>
                <path d="M248.443415,26.59879 L248.307412,26.59879 L248.307412,24.4594337 L248.443415,24.4594337 L248.443415,24.6364541 C248.443415,24.8447769 248.503861,24.9948125 248.624034,25.0854815 C248.700311,25.1444883 248.888845,25.1739917 249.190715,25.1739917 L252.4163,25.1739917 C252.533954,25.1739917 252.62966,25.1714731 252.703418,25.1664359 C252.776817,25.1617585 252.837623,25.152044 252.885476,25.1387315 C252.933329,25.125419 252.970748,25.1056301 252.997733,25.0797247 C253.024718,25.0545389 253.050623,25.0192787 253.075089,24.9750236 C253.134096,24.8670843 253.16324,24.7541079 253.16324,24.6364541 L253.16324,24.4594337 L253.299603,24.4594337 L253.299603,26.59879 L253.16324,26.59879 L253.16324,26.4185314 C253.16324,26.2120076 253.103154,26.063771 252.982981,25.9727422 C252.906704,25.9112169 252.71817,25.8806341 252.4163,25.8806341 L249.190715,25.8806341 C249.073061,25.8806341 248.976995,25.8831526 248.903596,25.8881898 C248.830198,25.893227 248.769752,25.9022219 248.722978,25.9158942 C248.676564,25.9292067 248.639145,25.9493554 248.611081,25.9767 C248.582657,26.0036848 248.556392,26.0393048 248.531926,26.0832001 C248.472919,26.1886208 248.443415,26.3005178 248.443415,26.4185314 L248.443415,26.59879 Z" id="Fill-27"></path>
                <path d="M248.307412,29.8680545 L252.508048,27.93882 L249.172365,27.93882 C248.865818,27.93882 248.674405,27.9719214 248.598128,28.0381241 C248.494866,28.1291529 248.443415,28.2727121 248.443415,28.4691616 L248.443415,28.646182 L248.307412,28.646182 L248.307412,26.908 L248.443415,26.908 L248.443415,27.0850204 C248.443415,27.2958618 248.5071,27.4455376 248.635187,27.5340478 C248.710745,27.5876576 248.890284,27.6150022 249.172365,27.6150022 L252.43429,27.6150022 C252.650168,27.6150022 252.810278,27.590536 252.91318,27.5412437 C252.94952,27.5239734 252.983701,27.5005866 253.014284,27.471443 C253.044866,27.4419396 253.071491,27.402002 253.093439,27.3516304 C253.115387,27.3016185 253.132657,27.2408127 253.14489,27.1695728 C253.157123,27.0979731 253.16324,27.0112619 253.16324,26.908 L253.299603,26.908 L253.299603,28.3220044 L249.393641,30.1332253 L253.299603,31.9149428 L253.299603,33.3289472 L253.16324,33.3289472 L253.16324,33.1562444 C253.16324,32.9425246 253.099556,32.7914097 252.972187,32.7032593 C252.89591,32.6489298 252.716731,32.621945 252.43429,32.621945 L249.172365,32.621945 C248.865818,32.621945 248.674405,32.6561258 248.598128,32.7248471 C248.494866,32.8158759 248.443415,32.9597949 248.443415,33.1562444 L248.443415,33.3289472 L248.307412,33.3289472 L248.307412,31.2086602 L248.443415,31.2086602 L248.443415,31.384961 C248.443415,31.5961622 248.5071,31.745838 248.635187,31.8343482 C248.710745,31.887958 248.890284,31.9149428 249.172365,31.9149428 L252.508048,31.9149428 L248.307412,29.9896661 L248.307412,29.8680545 Z" id="Fill-28"></path>
                <path d="M248.443415,35.8142129 L248.307412,35.8142129 L248.307412,33.6752164 L248.443415,33.6752164 L248.443415,33.851877 C248.443415,34.0605596 248.503861,34.2102353 248.624034,34.3009043 C248.700311,34.3599111 248.888845,34.3894145 249.190715,34.3894145 L252.4163,34.3894145 C252.533954,34.3894145 252.62966,34.3868959 252.703418,34.3822186 C252.776817,34.3771814 252.837623,34.3674669 252.885476,34.3541544 C252.933329,34.3408419 252.970748,34.3214128 252.997733,34.2951476 C253.024718,34.2699617 253.050623,34.2347016 253.075089,34.1904465 C253.134096,34.082867 253.16324,33.9695308 253.16324,33.851877 L253.16324,33.6752164 L253.299603,33.6752164 L253.299603,35.8142129 L253.16324,35.8142129 L253.16324,35.6339543 C253.16324,35.4277903 253.103154,35.2791939 252.982981,35.1885249 C252.906704,35.1269995 252.71817,35.0964167 252.4163,35.0964167 L249.190715,35.0964167 C249.073061,35.0964167 248.976995,35.0989353 248.903596,35.1036127 C248.830198,35.1086498 248.769752,35.1176448 248.722978,35.1316769 C248.676564,35.1446296 248.639145,35.1647783 248.611081,35.1921229 C248.582657,35.2191077 248.556392,35.2547277 248.531926,35.298623 C248.472919,35.4040436 248.443415,35.5163005 248.443415,35.6339543 L248.443415,35.8142129 Z" id="Fill-29"></path>
                <path d="M253.299603,40.3608666 L252.128822,40.3608666 L252.128822,40.2763142 C252.286053,40.2565253 252.419538,40.2241436 252.528197,40.1784493 C252.637575,40.1331148 252.725726,40.0737482 252.793728,39.9999897 C252.86101,39.926591 252.909942,39.8366416 252.940885,39.7312209 C252.971468,39.6258002 252.986939,39.5031093 252.986939,39.3635078 L252.986939,38.6601036 L249.172365,38.6601036 C248.865818,38.6601036 248.674405,38.6928452 248.598128,38.7594077 C248.494866,38.8504365 248.443415,38.9936359 248.443415,39.1900854 L248.443415,39.3635078 L248.307412,39.3635078 L248.307412,37.2460992 L248.443415,37.2460992 L248.443415,37.4227598 C248.443415,37.633961 248.5071,37.7836367 248.635187,37.8721469 C248.710745,37.9261166 248.890284,37.9531014 249.172365,37.9531014 L252.986939,37.9531014 L252.986939,37.3533189 C252.986939,37.2007647 252.975785,37.0683592 252.953478,36.9553828 C252.93189,36.8424063 252.889434,36.7467002 252.828268,36.6679045 C252.767103,36.5894686 252.680032,36.5257845 252.567055,36.476852 C252.454079,36.4275597 252.308001,36.3908604 252.128822,36.3660344 L252.128822,36.2264329 L253.299603,36.2264329 L253.299603,40.3608666 Z" id="Fill-30"></path>
                <path d="M253.027308,42.1798952 L251.053819,42.1798952 L251.053819,43.2769179 C251.053819,43.4363082 251.067851,43.5658353 251.096275,43.6654993 C251.124339,43.7644436 251.168594,43.8425197 251.22868,43.8990079 C251.288766,43.9554961 251.364324,43.9950738 251.454993,44.0166617 C251.546022,44.0389691 251.653961,44.0537208 251.778811,44.0612766 L251.778811,44.1972801 L250.041348,44.1972801 L250.041348,44.0612766 C250.164039,44.0440063 250.264063,44.026736 250.34106,44.0098255 C250.418776,43.9921954 250.474185,43.9749252 250.509085,43.9576549 C250.55298,43.936067 250.591839,43.907643 250.62494,43.8734623 C250.658041,43.8385619 250.686825,43.7946666 250.711291,43.7410568 C250.735758,43.6867273 250.754467,43.6219638 250.7667,43.5456867 C250.778933,43.4697694 250.78541,43.37982 250.78541,43.2769179 L250.78541,42.1798952 L249.139336,42.1798952 C248.920939,42.1798952 248.786015,42.1892499 248.734204,42.2090388 C248.712256,42.2187533 248.691388,42.2313462 248.671959,42.2464577 C248.65217,42.2608496 248.635259,42.2820777 248.622307,42.3105017 C248.608634,42.3385659 248.59784,42.375625 248.590645,42.4209595 C248.583089,42.466294 248.579851,42.523142 248.579851,42.5922232 L248.579851,43.4388268 C248.579851,43.5834654 248.583808,43.7043574 248.592444,43.8015027 C248.601079,43.8982883 248.61583,43.9832005 248.636699,44.0555198 C248.657207,44.1278391 248.68707,44.1918831 248.725209,44.2469321 C248.763347,44.3019811 248.81156,44.3606281 248.870567,44.4217937 C248.944326,44.497711 249.038592,44.5750675 249.154087,44.6538632 C249.269583,44.732299 249.404507,44.8107349 249.55886,44.8891708 L249.55886,45.0366878 L248.307484,44.6056503 L248.307484,40.758335 L248.443487,40.758335 L248.443487,40.9353554 C248.443487,40.9817693 248.448165,41.0310616 248.458239,41.0825126 C248.467954,41.1343234 248.484144,41.1828961 248.506092,41.2278708 C248.52804,41.2732053 248.555744,41.314582 248.588846,41.3512814 C248.622307,41.3883405 248.660445,41.4138862 248.7047,41.4286379 C248.780618,41.4581413 248.941807,41.4725332 249.187189,41.4725332 L252.430764,41.4725332 C252.745227,41.4725332 252.940237,41.440871 253.016154,41.3771868 C253.114379,41.2883168 253.163312,41.1411596 253.163312,40.9353554 L253.163312,40.758335 L253.299675,40.758335 L253.299675,44.6056503 L252.20625,44.6056503 L252.20625,44.5174999 C252.339015,44.4905151 252.448034,44.46389 252.534026,44.4365454 C252.619658,44.4092008 252.690538,44.3789778 252.747745,44.3444373 C252.803874,44.3102565 252.848849,44.2710386 252.88159,44.2264237 C252.915051,44.1825284 252.944915,44.1299979 252.972259,44.0684725 C253.008959,43.9677292 253.027308,43.7946666 253.027308,43.5496445 L253.027308,42.1798952 Z" id="Fill-31"></path>
                <path d="M248.667929,46.7634282 C248.599567,47.0706953 248.565027,47.3315485 248.565027,47.5477869 C248.565027,47.8298681 248.617198,48.0918008 248.721179,48.3335847 C248.82588,48.5753687 248.974117,48.7844111 249.166968,48.9614315 C249.35946,49.1384519 249.593328,49.2766141 249.868573,49.3773574 C250.143099,49.4781008 250.451446,49.5284724 250.792174,49.5284724 C251.13578,49.5284724 251.445206,49.4788204 251.720092,49.3795162 C251.994977,49.2798523 252.228486,49.1409704 252.421697,48.9632305 C252.614548,48.7851307 252.762065,48.5732099 252.865327,48.3263888 C252.968229,48.0795677 253.02004,47.8100793 253.02004,47.5182835 C253.02004,47.4078256 253.010326,47.289812 252.992696,47.1646025 C252.973986,47.0397527 252.947361,46.905908 252.91318,46.7634282 L248.667929,46.7634282 Z M248.307412,45.3386299 L248.443415,45.3386299 L248.443415,45.5264442 C248.443415,45.7351268 248.510698,45.8848026 248.645622,45.9754715 C248.724417,46.029801 248.906115,46.056426 249.190715,46.056426 L252.4163,46.056426 C252.730403,46.056426 252.925414,46.0222452 253.001691,45.9535239 C253.10963,45.8574579 253.16324,45.7153379 253.16324,45.5264442 L253.16324,45.3386299 L253.299603,45.3386299 L253.299603,47.3707665 C253.299603,48.1173464 253.215051,48.6840275 253.045586,49.0718893 C252.876481,49.4622697 252.59404,49.7749337 252.198622,50.0106011 C251.806083,50.2487871 251.3495,50.3678801 250.829233,50.3678801 C250.46116,50.3678801 250.122591,50.3085135 249.813165,50.1890607 C249.503739,50.0703275 249.237848,49.8933071 249.016213,49.6590789 C248.793858,49.4248507 248.620076,49.1326951 248.495226,48.7826121 C248.370017,48.4332487 248.307412,48.0288362 248.307412,47.5697345 L248.307412,45.3386299 Z" id="Fill-32"></path>
            </g>
        </g>
    </g>
</svg>