<?xml version="1.0" encoding="UTF-8"?>
<svg width="42px" height="32px" viewBox="0 0 42 32" version="1.1" xmlns="http://www.w3.org/2000/svg" xmlns:xlink="http://www.w3.org/1999/xlink">
    <!-- Generator: Sketch 46.2 (44496) - http://www.bohemiancoding.com/sketch -->
    <title>envelope</title>
    <desc>Created with Sketch.</desc>
    <defs></defs>
    <g id="Page-1" stroke="none" stroke-width="1" fill="none" fill-rule="evenodd">
        <g id="Contact-Desktop" transform="translate(-698.000000, -762.000000)" fill-rule="nonzero" fill="#CCBB81">
            <g id="envelope" transform="translate(698.000000, 762.000000)">
                <path d="M36.3614611,0.505626028 L5.32865309,0.505626028 C2.55847362,0.505626028 0.306640625,2.75745903 0.306640625,5.52763849 L0.306640625,26.7373561 C0.306640625,29.5075356 2.55847362,31.7593686 5.32865309,31.7593686 L36.3529636,31.7593686 C39.123143,31.7593686 41.374976,29.5075356 41.374976,26.7373561 L41.374976,5.53613597 C41.3834735,2.76595651 39.1316405,0.505626028 36.3614611,0.505626028 Z M39.0891531,26.7373561 C39.0891531,28.2414106 37.8655155,29.4650481 36.3614611,29.4650481 L5.32865309,29.4650481 C3.82459859,29.4650481 2.60096104,28.2414106 2.60096104,26.7373561 L2.60096104,5.53613597 C2.60096104,4.03208148 3.82459859,2.80844392 5.32865309,2.80844392 L36.3529636,2.80844392 C37.8570181,2.80844392 39.0806556,4.03208148 39.0806556,5.53613597 L39.0806556,26.7373561 L39.0891531,26.7373561 Z" id="Shape"></path>
                <path d="M26.2069689,15.8690753 L36.2509938,6.86174332 C36.7183553,6.43686917 36.7608428,5.71458312 36.3359686,5.23872407 C35.9110945,4.7713625 35.1888084,4.72887509 34.7129493,5.15374924 L20.862052,17.5855669 L18.1598524,15.1722817 C18.151355,15.1637842 18.1428575,15.1552867 18.1428575,15.1467893 C18.0833751,15.0873069 18.0238927,15.036322 17.9559128,14.9853371 L6.96016982,5.14525175 C6.48431078,4.7203776 5.76202472,4.76286502 5.33715057,5.23872407 C4.91227642,5.71458312 4.95476383,6.43686917 5.43062288,6.86174332 L15.5936126,15.9455527 L5.4731103,25.4202462 C5.01424621,25.8536179 4.98875377,26.5759039 5.4221254,27.0432655 C5.65155744,27.281195 5.95746683,27.4086572 6.26337622,27.4086572 C6.54379316,27.4086572 6.8242101,27.3066875 7.04514465,27.1027479 L17.3186016,17.4920946 L20.105776,19.9818571 C20.3267106,20.1772992 20.5986301,20.2707715 20.8705495,20.2707715 C21.142469,20.2707715 21.4228859,20.1688017 21.635323,19.9733596 L24.4989748,17.4071197 L34.7129493,27.1112453 C34.9338839,27.3236824 35.2227983,27.4256522 35.5032153,27.4256522 C35.8091247,27.4256522 36.1065366,27.3066875 36.3359686,27.0687579 C36.7693402,26.6098938 36.7523453,25.8791103 36.2934812,25.4457387 L26.2069689,15.8690753 Z" id="Shape"></path>
            </g>
        </g>
    </g>
</svg>