<?xml version="1.0" encoding="UTF-8"?>
<svg width="14px" height="20px" viewBox="0 0 14 20" version="1.1" xmlns="http://www.w3.org/2000/svg" xmlns:xlink="http://www.w3.org/1999/xlink">
    <!-- Generator: Sketch 46.2 (44496) - http://www.bohemiancoding.com/sketch -->
    <title>Page 1</title>
    <desc>Created with Sketch.</desc>
    <defs>
        <polygon id="path-1" points="13.733 0.4086 13.733 19.9996 0.000280811538 19.9996 0.000280811538 0.4086 13.733 0.4086"></polygon>
    </defs>
    <g id="Page-1" stroke="none" stroke-width="1" fill="none" fill-rule="evenodd">
        <g id="Homepage-Desktop" transform="translate(-379.000000, -2098.000000)">
            <g id="Group-Copy" transform="translate(269.500000, 2087.000000)">
                <g id="placeholder" transform="translate(108.933026, 9.520746)">
                    <g id="Page-1" transform="translate(0.566974, 0.479254)">
                        <path d="M5.4537,7.8086 C5.4537,6.9956 6.1157,6.3326 6.9297,6.3326 C7.7437,6.3326 8.4057,6.9956 8.4057,7.8086 C8.4057,8.6226 7.7437,9.2856 6.9297,9.2856 C6.1157,9.2856 5.4537,8.6226 5.4537,7.8086 M6.9297,10.4756 C8.3997,10.4756 9.5957,9.2796 9.5957,7.8086 C9.5957,6.3386 8.3997,5.1426 6.9297,5.1426 C5.4587,5.1426 4.2637,6.3386 4.2637,7.8086 C4.2637,9.2796 5.4587,10.4756 6.9297,10.4756" id="Fill-1" fill="#CCBB81"></path>
                        <g id="Group-5" transform="translate(0.000000, 0.591800)">
                            <mask id="mask-2" fill="white">
                                <use xlink:href="#path-1"></use>
                            </mask>
                            <g id="Clip-4"></g>
                            <path d="M6.8682,1.5986 C8.3852,1.5986 9.8112,2.1896 10.8842,3.2616 C12.8902,5.2686 13.1342,9.0516 11.4042,11.3586 L6.8682,17.9086 L2.3252,11.3476 C0.5992,9.0466 0.8462,5.2686 2.8522,3.2616 C3.9252,2.1896 5.3512,1.5986 6.8682,1.5986 M11.7262,2.4206 C10.4292,1.1226 8.7032,0.4086 6.8682,0.4086 C5.0332,0.4086 3.3072,1.1226 2.0112,2.4206 C-0.3848,4.8166 -0.6868,9.3166 1.3592,12.0436 L6.8682,19.9996 L12.3642,12.0626 C14.4202,9.3216 14.1222,4.8166 11.7262,2.4206" id="Fill-3" fill="#CCBB81" mask="url(#mask-2)"></path>
                        </g>
                    </g>
                </g>
            </g>
        </g>
    </g>
</svg>