<?xml version="1.0" encoding="UTF-8"?>
<svg width="42px" height="42px" viewBox="0 0 42 42" version="1.1" xmlns="http://www.w3.org/2000/svg" xmlns:xlink="http://www.w3.org/1999/xlink">
    <!-- Generator: Sketch 46.2 (44496) - http://www.bohemiancoding.com/sketch -->
    <title>Shape</title>
    <desc>Created with Sketch.</desc>
    <defs></defs>
    <g id="Page-1" stroke="none" stroke-width="1" fill="none" fill-rule="evenodd">
        <g id="Contact-Desktop" transform="translate(-380.000000, -752.000000)" stroke="#CCBB81" stroke-width="2" fill-rule="nonzero">
            <path d="M420.888355,784.401011 C420.972722,785.047365 420.775751,785.609352 420.298269,786.086971 L414.692451,791.650434 C414.439557,791.931427 414.109459,792.170478 413.702018,792.366967 C413.294578,792.563731 412.894231,792.690178 412.500978,792.746308 C412.472879,792.746308 412.388374,792.75354 412.247809,792.767589 C412.107519,792.78157 411.924873,792.788733 411.700078,792.788733 C411.166053,792.788733 410.30193,792.69741 409.107708,792.514695 C407.913486,792.331981 406.452389,791.882322 404.724417,791.165927 C402.996033,790.449394 401.036173,789.374456 398.844493,787.941528 C396.652814,786.508668 394.3205,784.541577 391.847758,782.040667 C389.880804,780.101812 388.251042,778.247256 386.958473,776.477066 C385.665903,774.706739 384.626228,773.069953 383.839446,771.566638 C383.052596,770.063323 382.46251,768.700506 382.069119,767.478184 C381.675728,766.255863 381.408785,765.202138 381.268288,764.317009 C381.127791,763.43188 381.071592,762.736421 381.099692,762.230633 C381.127791,761.724845 381.141841,761.443851 381.141841,761.387653 C381.198039,760.994262 381.324486,760.593846 381.521182,760.186406 C381.717877,759.778965 381.956722,759.448798 382.237715,759.195904 L387.843533,753.590086 C388.236924,753.196695 388.686513,753 389.192301,753 C389.557593,753 389.880735,753.105373 390.161729,753.316118 C390.442722,753.526863 390.681566,753.786781 390.878262,754.095874 L395.388206,762.652123 C395.6411,763.101712 395.711348,763.593451 395.598951,764.127338 C395.486553,764.661226 395.247709,765.110815 394.882417,765.476106 L392.817116,767.541408 C392.760917,767.597606 392.711744,767.688929 392.669595,767.815376 C392.627446,767.941823 392.606371,768.047196 392.606371,768.131494 C392.718768,768.72158 392.971662,769.395964 393.365053,770.154646 C393.702245,770.82903 394.222083,771.650936 394.924566,772.620363 C395.62705,773.58979 396.624576,774.70667 397.917146,775.971141 C399.181616,777.263848 400.30559,778.268262 401.289067,778.984932 C402.272337,779.70119 403.094518,780.228259 403.754853,780.565451 C404.415187,780.902643 404.920975,781.106364 405.272148,781.176405 L405.798873,781.281847 C405.855071,781.281847 405.946601,781.260703 406.07291,781.218623 C406.199357,781.176405 406.29068,781.1273 406.346948,781.071033 L408.749372,778.62639 C409.255436,778.17687 409.845246,777.952075 410.519699,777.952075 C410.997526,777.952075 411.37666,778.036304 411.657654,778.204969 L419.834424,783.009956 C420.424716,783.375523 420.775889,783.839024 420.888355,784.401011 Z" id="Shape"></path>
        </g>
    </g>
</svg>